<svg xmlns="http://www.w3.org/2000/svg" width="40" height="47" viewBox="0 0 40 47" fill="none">
  <g clip-path="url(#clip0_14_260)">
    <path fill-rule="evenodd" clip-rule="evenodd" d="M39.6475 22.3544L32.2438 13.6301C31.755 13.0573 30.96 13.0573 30.47 13.6301C29.98 14.2176 29.98 15.1428 30.47 15.7303L35.7938 22.0019H4.20624L9.53 15.7303C10.02 15.1428 10.02 14.2176 9.53 13.6301C9.04 13.0573 8.24624 13.0573 7.75624 13.6301L0.352523 22.3544C0.0912735 22.6628 -0.0212413 23.0741 -0.00249133 23.4707C-0.0212413 23.8819 0.0912735 24.2932 0.352523 24.6016L7.75624 33.3259C8.24624 33.8987 9.04 33.8987 9.53 33.3259C10.02 32.7384 10.02 31.8132 9.53 31.2257L4.20624 24.9541H35.7938L30.47 31.2257C29.98 31.8132 29.98 32.7384 30.47 33.3259C30.96 33.8987 31.755 33.8987 32.2438 33.3259L39.6475 24.6016C39.9087 24.2932 40.0213 23.8819 40.0025 23.4707C40.0213 23.0741 39.9087 22.6628 39.6475 22.3544Z" fill="black"/>
  </g>
  <defs>
    <clipPath id="clip0_14_260">
      <rect width="40" height="47" fill="white"/>
    </clipPath>
  </defs>
</svg>